<svg xmlns="http://www.w3.org/2000/svg" width="24" height="24" viewBox="0 0 24 24" fill="none">
  <path d="M8.5 6.5c-2 0-3.2 1.1-3.2 3.2v1c0 1.3-.8 2.2-2 2.5 1.2.3 2 1.2 2 2.5v1c0 2.1 1.2 3.2 3.2 3.2" stroke="currentColor" stroke-width="2.2" stroke-linecap="round" stroke-linejoin="round"/>
  <path d="M15.5 6.5c2 0 3.2 1.1 3.2 3.2v1c0 1.3.8 2.2 2 2.5-1.2.3-2 1.2-2 2.5v1c0 2.1-1.2 3.2-3.2 3.2" stroke="currentColor" stroke-width="2.2" stroke-linecap="round" stroke-linejoin="round"/>
  <circle cx="10" cy="12" r="1.2" fill="currentColor"/>
  <circle cx="14" cy="12" r="1.2" fill="currentColor"/>
  <path d="M11.2 3.7v2.8" stroke="currentColor" stroke-width="2.2" stroke-linecap="round"/>
  <path d="M13.2 3.7v2.8" stroke="currentColor" stroke-width="2.2" stroke-linecap="round"/>
  <path d="M7.4 17.2L16.6 6.8" stroke="currentColor" stroke-width="3.2" stroke-linecap="round" stroke-linejoin="round"/>
</svg>
